<svg xmlns="http://www.w3.org/2000/svg" xmlns:xlink="http://www.w3.org/1999/xlink" viewBox="0 0 160 64" width="160" height="64">
  <defs>
    <clipPath id="clip0">
      <path d="M22.31 18.24C26.22 20.5 27.56 25.5 25.3 29.41C23.05 33.33 18.04 34.67 14.13 32.41C10.22 30.15 8.877 25.15 11.14 21.23C13.39 17.32 18.4 15.98 22.31 18.24Z"></path>
    </clipPath>
    <g clip-path="url(#clip0)"></g>
    <clipPath id="clip1">
      <path d="M10.03 25.32C10.03 20.8 13.69 17.14 18.21 17.14L27.11 17.14L67.03 7.14L67.03 33.5L18.21 33.5C13.69 33.5 10.03 29.84 10.03 25.32Z"></path>
    </clipPath>
    <g clip-path="url(#clip1)"></g>
  </defs>
  <path transform="translate(157.322 51.9614)" d="M0.208 -1.925C0.658 -1.883 1.053 -1.691 1.377 -1.358C1.746 -0.9793 1.934 -0.516 1.934 0.0122C1.934 0.0122 1.925 0.2056 1.925 0.2056C1.882 0.6502 1.69 1.041 1.358 1.365C1.358 1.365 1.357 1.364 1.357 1.364C1.035 1.692 0.647 1.883 0.205 1.925C0.205 1.925 0.012 1.934 0.012 1.934C-0.518 1.934 -0.981 1.74 -1.358 1.364C-1.69 1.041 -1.883 0.6501 -1.926 0.2056C-1.926 0.2056 -1.934 0.0122 -1.934 0.0122C-1.934 -0.5228 -1.747 -0.9878 -1.374 -1.361C-0.994 -1.74 -0.526 -1.934 0.012 -1.934C0.012 -1.934 0.208 -1.925 0.208 -1.925Z"></path>
  <path transform="translate(146.587 46.7344)" d="M0.3565 -7.583C1.746 -7.583 3.017 -7.275 4.167 -6.657C4.167 -6.657 4.394 -6.529 4.394 -6.529C4.394 -6.529 4.397 -6.528 4.397 -6.528C5.589 -5.823 6.499 -4.837 7.124 -3.579C7.124 -3.579 7.295 -3.246 7.295 -3.246L7.023 -3.081L4.595 -1.605L4.457 -2.008C4.457 -2.008 4.44 -2.056 4.44 -2.056C4.089 -2.74 3.616 -3.293 3.023 -3.717C3.023 -3.717 2.76 -3.893 2.76 -3.893C2.128 -4.289 1.436 -4.513 0.6845 -4.562C0.6845 -4.562 0.3565 -4.573 0.3565 -4.573C-0.2775 -4.573 -0.8705 -4.454 -1.421 -4.217C-1.97 -3.977 -2.447 -3.649 -2.855 -3.233C-2.855 -3.233 -2.858 -3.231 -2.858 -3.231C-3.273 -2.816 -3.601 -2.327 -3.841 -1.762C-3.841 -1.762 -3.842 -1.76 -3.842 -1.76C-4.078 -1.208 -4.198 -0.6164 -4.198 0.0185C-4.198 0.6446 -4.079 1.233 -3.842 1.785C-3.632 2.273 -3.354 2.707 -3.009 3.086C-3.009 3.086 -2.858 3.245 -2.858 3.245C-2.858 3.245 -2.855 3.247 -2.855 3.247C-2.447 3.662 -1.97 3.989 -1.421 4.228C-0.8695 4.466 -0.2775 4.586 0.3565 4.586C1.156 4.586 1.914 4.379 2.634 3.961C3.355 3.542 3.913 2.991 4.312 2.308C4.312 2.308 4.315 2.301 4.315 2.301L4.32 2.294L4.37 2.219L4.545 1.947L7.232 3.476L7.146 3.741L7.122 3.816L7.109 3.853C7.109 3.853 7.089 3.888 7.089 3.888C6.749 4.454 6.335 4.964 5.848 5.416C5.372 5.866 4.839 6.254 4.253 6.582C4.253 6.582 4.252 6.583 4.252 6.583C3.049 7.249 1.748 7.583 0.3565 7.583C-0.6255 7.583 -1.575 7.392 -2.486 7.01C-3.394 6.629 -4.207 6.102 -4.924 5.428C-4.924 5.428 -4.926 5.426 -4.926 5.426C-5.637 4.749 -6.21 3.952 -6.641 3.037C-7.023 2.226 -7.239 1.352 -7.286 0.4209C-7.286 0.4209 -7.295 0.0185 -7.295 0.0185C-7.295 -0.635 -7.204 -1.28 -7.022 -1.914C-6.658 -3.195 -6.011 -4.311 -5.084 -5.255C-4.859 -5.498 -4.614 -5.721 -4.352 -5.922C-4.095 -6.127 -3.829 -6.316 -3.555 -6.487C-3.555 -6.487 -3.549 -6.49 -3.549 -6.49C-2.986 -6.829 -2.374 -7.092 -1.719 -7.282C-1.719 -7.282 -1.469 -7.353 -1.469 -7.353C-0.8825 -7.506 -0.2735 -7.583 0.3565 -7.583Z"></path>
  <path transform="translate(130.829 46.6673)" d="M1.523 -7.279C2.191 -7.322 2.788 -7.266 3.303 -7.101C3.799 -6.941 4.236 -6.716 4.604 -6.422C4.968 -6.139 5.27 -5.797 5.506 -5.398C5.741 -5.006 5.923 -4.609 6.048 -4.209C6.178 -3.811 6.269 -3.406 6.321 -2.998C6.352 -2.804 6.376 -2.616 6.396 -2.437C6.396 -2.437 6.438 -1.92 6.438 -1.92C6.438 -1.92 6.438 -1.914 6.438 -1.914C6.487 -0.4833 6.501 0.9566 6.476 2.404C6.451 3.846 6.422 5.343 6.389 6.893C6.389 6.893 6.38 7.24 6.38 7.24L3.138 7.13C3.138 7.13 3.155 6.782 3.155 6.782C3.222 5.449 3.28 4.116 3.329 2.783C3.329 2.783 3.329 2.781 3.329 2.781C3.386 1.458 3.382 0.1215 3.316 -1.227C3.316 -1.227 3.316 -1.243 3.316 -1.243C3.316 -1.508 3.284 -1.82 3.221 -2.179C3.16 -2.527 3.051 -2.875 2.891 -3.22C2.891 -3.22 2.803 -3.382 2.803 -3.382C2.711 -3.537 2.603 -3.679 2.477 -3.806C2.319 -3.958 2.118 -4.079 1.87 -4.164C1.87 -4.164 1.867 -4.165 1.867 -4.165C1.651 -4.241 1.38 -4.263 1.038 -4.211C0.5105 -4.131 -0.0835 -3.735 -0.7325 -2.908C-0.7325 -2.908 -0.7345 -2.907 -0.7345 -2.907C-1.363 -2.12 -2.067 -0.917 -2.845 0.7184C-2.845 0.7184 -2.76 3.818 -2.76 3.818C-2.76 3.818 -2.76 3.821 -2.76 3.821C-2.751 4.218 -2.743 4.565 -2.736 4.862C-2.736 4.862 -2.711 5.616 -2.711 5.616C-2.711 5.616 -2.711 5.618 -2.711 5.618C-2.694 6.098 -2.681 6.419 -2.674 6.582C-2.674 6.582 -2.658 6.9 -2.658 6.9L-2.974 6.939L-6.017 7.322C-6.017 7.322 -6.28 -0.0267 -6.28 -0.0267C-6.297 -0.4992 -6.312 -1.006 -6.33 -1.544C-6.33 -1.544 -6.417 -4.242 -6.417 -4.242L-6.501 -7.224L-2.976 -7.286C-2.976 -7.286 -2.938 -4.473 -2.938 -4.473C-2.828 -4.621 -2.714 -4.766 -2.595 -4.907C-2.234 -5.346 -1.841 -5.736 -1.416 -6.075C-0.9875 -6.416 -0.5295 -6.692 -0.0455 -6.904C-0.0455 -6.904 -0.0435 -6.905 -0.0435 -6.905C0.4565 -7.119 0.9795 -7.243 1.523 -7.279Z"></path>
  <path transform="translate(115.638 50.5127)" d="M3.913 -10.78L7.159 -10.75C7.159 -10.75 7.006 -10.3 7.006 -10.3C6.567 -9.008 6.165 -7.828 5.8 -6.76C5.8 -6.76 5.801 -6.759 5.801 -6.759C5.445 -5.69 5.122 -4.723 4.832 -3.861C4.832 -3.861 4.831 -3.86 4.831 -3.86C4.682 -3.421 4.516 -2.936 4.334 -2.405C4.16 -1.883 3.989 -1.384 3.823 -0.9111C3.666 -0.4479 3.537 -0.0746 3.437 0.208C3.23 0.7951 3.048 1.321 2.891 1.783C2.891 1.783 2.891 1.785 2.891 1.785C2.735 2.238 2.596 2.622 2.48 2.938C2.48 2.938 2.481 2.939 2.481 2.939C2.398 3.18 2.306 3.429 2.207 3.685C2.207 3.685 2.208 3.685 2.208 3.685C2.115 3.954 2.015 4.232 1.906 4.517C1.906 4.517 1.903 4.524 1.903 4.524C1.673 5.088 1.391 5.65 1.06 6.21C0.736 6.773 0.356 7.318 -0.076 7.844C-0.076 7.844 -0.079 7.848 -0.079 7.848C-0.513 8.359 -1.032 8.835 -1.631 9.271C-1.631 9.271 -1.866 9.428 -1.866 9.428C-2.407 9.776 -3.01 10.07 -3.67 10.3C-4.436 10.57 -5.291 10.72 -6.23 10.77C-6.23 10.77 -6.524 10.78 -6.524 10.78L-7.066 8.066L-7.159 7.606C-7.159 7.606 -6.692 7.658 -6.692 7.658C-6.211 7.712 -5.763 7.701 -5.347 7.626C-4.537 7.448 -3.816 7.079 -3.18 6.513C-3.18 6.513 -2.96 6.31 -2.96 6.31C-2.742 6.101 -2.528 5.873 -2.318 5.626C-2.064 5.316 -1.838 4.999 -1.641 4.676C-1.641 4.676 -1.639 4.673 -1.639 4.673C-1.467 4.398 -1.315 4.137 -1.179 3.893C-1.179 3.893 -6.367 -9.878 -6.367 -9.878L-6.519 -10.28L-2.965 -10.76L-2.875 -10.49C-2.875 -10.49 0.46 -0.5322 0.46 -0.5322C0.576 -0.8946 0.703 -1.284 0.837 -1.701C0.837 -1.701 0.837 -1.703 0.837 -1.703C1.11 -2.539 1.4 -3.438 1.707 -4.398C2.005 -5.358 2.314 -6.36 2.636 -7.402C2.636 -7.402 3.115 -8.973 3.115 -8.973C3.272 -9.494 3.428 -10.01 3.581 -10.53C3.581 -10.53 3.654 -10.78 3.654 -10.78L3.913 -10.78Z"></path>
  <path transform="translate(101.343 44.0684)" d="M0.146 -10.54C0.934 -10.5 1.742 -10.38 2.567 -10.16C3.302 -9.976 4.059 -9.699 4.837 -9.336C5.643 -8.963 6.375 -8.459 7.031 -7.829C7.031 -7.829 7.233 -7.636 7.233 -7.636L7.084 -7.398L5.447 -4.812C5.447 -4.812 5.145 -5.155 5.145 -5.155C4.684 -5.679 4.152 -6.096 3.553 -6.407C3.553 -6.407 3.551 -6.409 3.551 -6.409C2.93 -6.74 2.352 -6.978 1.817 -7.128C1.213 -7.295 0.613 -7.389 0.02 -7.413C-0.695 -7.412 -1.32 -7.306 -1.86 -7.101C-2.414 -6.89 -2.868 -6.616 -3.229 -6.285C-3.229 -6.285 -3.234 -6.28 -3.234 -6.28C-3.606 -5.953 -3.889 -5.59 -4.082 -5.189C-4.082 -5.189 -4.081 -5.188 -4.081 -5.188C-4.27 -4.78 -4.361 -4.389 -4.361 -4.015C-4.361 -4.015 -4.356 -3.883 -4.356 -3.883C-4.333 -3.576 -4.23 -3.271 -4.039 -2.966C-3.809 -2.611 -3.49 -2.282 -3.073 -1.981C-2.183 -1.341 -1.063 -0.9219 0.302 -0.7372C0.615 -0.7032 0.923 -0.6569 1.228 -0.5976C1.532 -0.5468 1.841 -0.483 2.152 -0.4072C2.152 -0.4072 2.154 -0.4072 2.154 -0.4072C2.766 -0.2541 3.355 -0.05805 3.918 0.1806C4.35 0.3613 4.756 0.5701 5.133 0.8056C5.133 0.8056 5.501 1.051 5.501 1.051C5.501 1.051 5.505 1.054 5.505 1.054C5.993 1.411 6.405 1.812 6.734 2.257C6.734 2.257 6.735 2.259 6.735 2.259C7.075 2.724 7.321 3.247 7.472 3.822C7.472 3.822 7.528 4.044 7.528 4.044C7.642 4.566 7.654 5.13 7.569 5.729C7.481 6.342 7.307 6.896 7.046 7.384C7.046 7.384 7.045 7.386 7.045 7.386C6.779 7.873 6.449 8.298 6.054 8.656C5.668 9.008 5.238 9.307 4.764 9.553C4.764 9.553 4.756 9.557 4.756 9.557C4.383 9.736 4.014 9.888 3.648 10.01C3.648 10.01 3.283 10.13 3.283 10.13C2.768 10.27 2.248 10.37 1.724 10.43C1.724 10.43 1.723 10.43 1.723 10.43C1.207 10.5 0.709 10.54 0.231 10.54C-0.432 10.54 -1.088 10.46 -1.735 10.32C-2.374 10.18 -3.001 9.987 -3.614 9.74C-3.614 9.74 -3.615 9.739 -3.615 9.739C-4.235 9.485 -4.847 9.183 -5.448 8.836C-5.448 8.836 -5.449 8.835 -5.449 8.835C-6.037 8.49 -6.622 8.112 -7.201 7.7C-7.201 7.7 -7.506 7.484 -7.506 7.484L-7.265 7.199L-5.224 4.794C-5.224 4.794 -4.961 5.025 -4.961 5.025C-4.331 5.582 -3.715 6.018 -3.115 6.334C-2.489 6.65 -1.935 6.886 -1.452 7.045C-1.452 7.045 -1.446 7.047 -1.446 7.047C-0.876 7.245 -0.341 7.37 0.155 7.426C0.72 7.457 1.241 7.414 1.717 7.299C2.21 7.173 2.628 7.002 2.973 6.792C3.699 6.346 4.063 5.805 4.14 5.171C4.154 4.99 4.134 4.825 4.081 4.672C4.081 4.672 4.015 4.521 4.015 4.521C3.806 4.116 3.383 3.74 2.685 3.419C2.685 3.419 2.681 3.417 2.681 3.417C2.52 3.34 2.349 3.27 2.17 3.208C2.17 3.208 2.161 3.205 2.161 3.205C2.161 3.205 2.152 3.201 2.152 3.201C1.976 3.129 1.795 3.061 1.61 2.997C1.226 2.877 0.828 2.773 0.42 2.685C0.42 2.685 0.412 2.683 0.412 2.683C0.004 2.585 -0.391 2.503 -0.772 2.438C-0.772 2.438 -0.78 2.438 -0.78 2.438C-1.259 2.345 -1.762 2.231 -2.289 2.097C-2.289 2.097 -2.294 2.096 -2.294 2.096C-2.832 1.951 -3.361 1.767 -3.881 1.546C-3.881 1.546 -3.885 1.544 -3.885 1.544C-4.414 1.31 -4.913 1.019 -5.38 0.6729C-5.38 0.6729 -5.381 0.6719 -5.381 0.6719C-5.867 0.31 -6.28 -0.1192 -6.616 -0.6152C-6.971 -1.114 -7.238 -1.693 -7.42 -2.344C-7.42 -2.344 -7.421 -2.349 -7.421 -2.349C-7.599 -3.014 -7.654 -3.767 -7.594 -4.6C-7.542 -5.311 -7.393 -5.952 -7.143 -6.516C-6.676 -7.63 -5.921 -8.522 -4.889 -9.187C-4.889 -9.187 -4.519 -9.412 -4.519 -9.412C-4.142 -9.626 -3.747 -9.811 -3.332 -9.967C-2.78 -10.17 -2.211 -10.32 -1.625 -10.41C-1.625 -10.41 -1.183 -10.47 -1.183 -10.47C-0.852 -10.51 -0.522 -10.53 -0.193 -10.54C-0.193 -10.54 0.146 -10.54 0.146 -10.54Z"></path>
  <path transform="translate(85.267 49.8589)" fill-rule="evenodd" d="M0.235 -10.68C0.8385 -10.68 1.431 -10.6 2.008 -10.43C3.182 -10.09 4.217 -9.48 5.109 -8.598C5.109 -8.598 5.273 -8.435 5.273 -8.435C5.649 -8.048 5.975 -7.616 6.25 -7.143C6.563 -6.611 6.802 -6.033 6.966 -5.411C6.966 -5.411 7.028 -5.175 7.028 -5.175C7.141 -4.701 7.197 -4.211 7.196 -3.706C7.196 -3.706 7.191 -3.453 7.191 -3.453C7.165 -2.729 7.053 -2.029 6.854 -1.355C6.854 -1.355 6.853 -1.352 6.853 -1.352C6.458 -0.0545 5.817 1.045 4.931 1.941C4.931 1.941 4.932 1.942 4.932 1.942C4.507 2.384 4.046 2.76 3.548 3.066C3.548 3.066 3.547 3.065 3.547 3.065C2.538 3.69 1.491 4.012 0.4099 4.012C0.4099 4.012 0.404 4.012 0.404 4.012C-0.1317 4.003 -0.6744 3.923 -1.221 3.776C-1.699 3.654 -2.219 3.464 -2.778 3.21C-3.164 3.04 -3.543 2.82 -3.915 2.553C-3.915 2.553 -3.987 10.62 -3.987 10.62L-6.977 10.68L-7.193 -10.1L-7.197 -10.43L-3.767 -10.57C-3.767 -10.57 -3.786 -9.165 -3.786 -9.165C-3.472 -9.41 -3.146 -9.615 -2.81 -9.778C-2.285 -10.04 -1.796 -10.24 -1.344 -10.38C-1.344 -10.38 -1.341 -10.38 -1.341 -10.38C-0.7924 -10.55 -0.2742 -10.65 0.2105 -10.68C0.2105 -10.68 0.2224 -10.68 0.2224 -10.68C0.2224 -10.68 0.235 -10.68 0.235 -10.68ZM-0.02085 -7.473C-0.9464 -7.458 -1.748 -7.162 -2.441 -6.583C-3.126 -6.013 -3.587 -5.329 -3.835 -4.528C-3.835 -4.528 -3.859 -2.265 -3.859 -2.265C-3.742 -1.767 -3.565 -1.336 -3.33 -0.9683C-3.14 -0.68 -2.93 -0.4308 -2.701 -0.2202C-2.701 -0.2202 -2.464 -0.022 -2.464 -0.022C-2.464 -0.022 -2.463 -0.021 -2.463 -0.021C-1.791 0.4979 -1.046 0.7625 -0.2182 0.7778C-0.2182 0.7778 -0.01695 0.7778 -0.01695 0.7778C0.4394 0.7671 0.8661 0.6732 1.265 0.4966C1.265 0.4966 1.267 0.4956 1.267 0.4956C1.74 0.2897 2.15 0.0043 2.499 -0.3599C2.849 -0.726 3.13 -1.154 3.339 -1.647C3.339 -1.647 3.339 -1.652 3.339 -1.652C3.554 -2.142 3.678 -2.674 3.709 -3.249C3.77 -4.426 3.443 -5.41 2.736 -6.224C2.394 -6.611 1.987 -6.918 1.515 -7.147C1.053 -7.37 0.5429 -7.481 -0.02085 -7.473Z"></path>
  <path transform="translate(73.6255 36.0947)" d="M-0.0181 -2.114C0.5624 -2.114 1.066 -1.898 1.476 -1.481C1.476 -1.481 1.625 -1.323 1.625 -1.323C1.948 -0.9431 2.114 -0.4914 2.114 0.01855C2.114 0.01855 2.104 0.2315 2.104 0.2315C2.057 0.719 1.843 1.148 1.476 1.507C1.064 1.909 0.5595 2.114 -0.0181 2.114C-0.5892 2.114 -1.089 1.908 -1.5 1.507C-1.5 1.507 -1.506 1.501 -1.506 1.501C-1.857 1.141 -2.059 0.7133 -2.104 0.2295C-2.104 0.2295 -2.114 0.01855 -2.114 0.01855C-2.114 -0.5594 -1.909 -1.063 -1.506 -1.476C-1.097 -1.895 -0.595 -2.114 -0.0181 -2.114Z"></path>
  <path transform="translate(73.4209 46.7466)" d="M1.61 -0.2847C1.61 -0.2847 1.61 -0.2827 1.61 -0.2827C1.569 1.357 1.544 2.643 1.536 3.577C1.536 3.577 1.536 3.582 1.536 3.582C1.511 4.724 1.498 5.62 1.498 6.271C1.498 6.271 1.498 6.614 1.498 6.614L-1.742 6.614C-1.742 6.614 -1.735 6.265 -1.735 6.265C-1.727 5.818 -1.718 5.329 -1.71 4.8C-1.71 4.8 -1.71 4.794 -1.71 4.794C-1.694 4.258 -1.681 3.683 -1.673 3.072C-1.673 3.072 -1.599 -0.8218 -1.599 -0.8218L-1.519 -6.489L1.742 -6.614L1.61 -0.2847Z"></path>
  <path transform="translate(62.8755 44.3824)" d="M-3.977 6.425L7.005 5.57L7.163 8.906L6.828 8.928L-7.086 9.885L-7.087 9.519L-7.163 -9.712L-4.265 -9.867L-3.902 -9.885L-3.977 6.425Z"></path>
  <path transform="translate(100.044 22.3857)" fill-rule="evenodd" d="M0.07645 -7.509C0.9844 -7.509 1.844 -7.329 2.651 -6.97C3.352 -6.665 3.983 -6.256 4.544 -5.744C4.544 -5.744 4.78 -5.519 4.78 -5.519C4.78 -5.519 4.782 -5.518 4.782 -5.518C5.399 -4.892 5.905 -4.158 6.302 -3.322C6.7 -2.482 6.951 -1.574 7.055 -0.6015C7.055 -0.6015 7.09 -0.2745 7.09 -0.2745L6.765 -0.2265C6.765 -0.2265 -3.667 1.327 -3.667 1.327C-3.598 1.747 -3.479 2.128 -3.311 2.472C-3.311 2.472 -3.134 2.781 -3.134 2.781C-2.948 3.077 -2.733 3.335 -2.491 3.555C-2.491 3.555 -2.364 3.663 -2.364 3.663C-1.718 4.19 -0.9121 4.461 0.07645 4.461C0.9225 4.461 1.697 4.211 2.411 3.705C3.11 3.202 3.567 2.505 3.781 1.594C3.781 1.594 3.857 1.27 3.857 1.27L6.954 1.895C6.954 1.895 6.843 2.257 6.843 2.257C6.601 3.042 6.258 3.758 5.814 4.401C5.373 5.042 4.857 5.595 4.265 6.057C3.672 6.519 3.017 6.875 2.304 7.127C2.304 7.127 2.305 7.128 2.305 7.128C1.596 7.382 0.8514 7.509 0.07645 7.509C-1.051 7.509 -2.066 7.337 -2.958 6.987C-3.734 6.683 -4.41 6.266 -4.98 5.735C-4.98 5.735 -5.217 5.501 -5.217 5.501C-6.477 4.188 -7.09 2.413 -7.09 0.2177C-7.09 -0.8572 -6.909 -1.865 -6.545 -2.803C-6.545 -2.803 -6.545 -2.805 -6.545 -2.805C-6.174 -3.744 -5.667 -4.564 -5.023 -5.261C-4.379 -5.957 -3.621 -6.506 -2.753 -6.905C-1.877 -7.308 -0.9315 -7.509 0.07645 -7.509ZM-0.1618 -4.675C-0.4075 -4.654 -0.6762 -4.601 -0.9683 -4.514C-0.9683 -4.514 -0.9743 -4.512 -0.9743 -4.512C-1.343 -4.408 -1.708 -4.225 -2.068 -3.957C-2.418 -3.696 -2.745 -3.341 -3.042 -2.881C-3.254 -2.548 -3.422 -2.142 -3.543 -1.66C-3.543 -1.66 3.039 -2.459 3.039 -2.459C2.749 -3.149 2.37 -3.683 1.907 -4.069C1.907 -4.069 1.905 -4.07 1.905 -4.07C1.429 -4.474 0.8274 -4.685 0.07645 -4.686C0.07645 -4.686 -0.1618 -4.675 -0.1618 -4.675Z"></path>
  <path transform="translate(85.4458 22.084)" d="M3.856 -7.043L6.841 -6.637L6.692 -6.234L1.807 6.853L1.722 7.08L1.481 7.076L-2.024 7.026L-2.264 7.023L-6.841 -6.147L-3.628 -6.638L-0.1392 3.387L3.487 -6.818L3.581 -7.08L3.856 -7.043Z"></path>
  <path transform="translate(75.3409 11.7451)" d="M0.1963 -2.104C0.6866 -2.057 1.118 -1.846 1.477 -1.481C1.477 -1.481 1.625 -1.323 1.625 -1.323C1.948 -0.943 2.114 -0.4912 2.114 0.01857C2.114 0.01857 2.104 0.2315 2.104 0.2315C2.057 0.719 1.843 1.148 1.477 1.507C1.116 1.859 0.6837 2.06 0.1944 2.104C0.1944 2.104 -0.01855 2.114 -0.01855 2.114C-0.5896 2.114 -1.09 1.908 -1.501 1.507C-1.501 1.507 -1.507 1.501 -1.507 1.501C-1.858 1.141 -2.059 0.7133 -2.105 0.2295C-2.105 0.2295 -2.114 0.01857 -2.114 0.01857C-2.114 -0.5591 -1.909 -1.063 -1.507 -1.476C-1.097 -1.895 -0.5949 -2.114 -0.01855 -2.114C-0.01855 -2.114 0.1963 -2.104 0.1963 -2.104Z"></path>
  <path transform="translate(75.1367 22.3974)" d="M1.609 -0.2851C1.609 -0.2851 1.609 -0.2831 1.609 -0.2831C1.568 1.356 1.543 2.644 1.535 3.577C1.535 3.577 1.535 3.582 1.535 3.582C1.51 4.724 1.498 5.621 1.498 6.271C1.498 6.271 1.498 6.614 1.498 6.614L-1.742 6.614C-1.742 6.614 -1.735 6.266 -1.735 6.266C-1.727 5.819 -1.719 5.33 -1.711 4.8C-1.711 4.8 -1.711 4.794 -1.711 4.794C-1.694 4.258 -1.682 3.683 -1.674 3.072C-1.674 3.072 -1.599 -0.8213 -1.599 -0.8213L-1.524 -6.163L-1.52 -6.488L1.378 -6.601L1.742 -6.614L1.609 -0.2851Z"></path>
  <path transform="translate(63.5064 19.4927)" fill-rule="evenodd" d="M-1.36 -9.811C-0.8062 -9.811 -0.1955 -9.773 0.4692 -9.698C1.143 -9.621 1.817 -9.484 2.49 -9.289C3.005 -9.14 3.508 -8.948 3.999 -8.713C3.999 -8.713 4.485 -8.464 4.485 -8.464C4.485 -8.464 4.487 -8.463 4.487 -8.463C5.133 -8.105 5.705 -7.65 6.203 -7.101C6.203 -7.101 6.207 -7.096 6.207 -7.096C6.702 -6.53 7.089 -5.853 7.367 -5.072C7.649 -4.277 7.768 -3.357 7.734 -2.323C7.734 -2.323 7.734 -2.321 7.734 -2.321C7.707 -1.645 7.571 -1.017 7.32 -0.4439C7.074 0.1185 6.747 0.6249 6.341 1.075C5.94 1.528 5.476 1.934 4.948 2.289C4.948 2.289 4.945 2.292 4.945 2.292C4.532 2.562 4.096 2.801 3.641 3.012C3.641 3.012 7.283 8.743 7.283 8.743L4.292 9.726L4.031 9.811C4.031 9.811 0.5289 3.971 0.5289 3.971C0.1962 4.029 -0.1471 4.081 -0.5005 4.122C-0.5005 4.122 -0.4996 4.123 -0.4996 4.123C-0.8282 4.161 -1.182 4.184 -1.559 4.194C-1.559 4.194 -1.944 4.199 -1.944 4.199C-2.367 4.199 -2.831 4.181 -3.333 4.148C-3.333 4.148 -3.34 4.148 -3.34 4.148C-3.716 4.116 -4.105 4.067 -4.506 4.002C-4.506 4.002 -4.457 9.195 -4.457 9.195L-7.768 9.321L-7.768 -8.878C-7.768 -8.878 -7.525 -8.952 -7.525 -8.952C-6.797 -9.172 -6.067 -9.337 -5.338 -9.447C-4.622 -9.555 -3.964 -9.639 -3.369 -9.698C-3.369 -9.698 -2.851 -9.743 -2.851 -9.743C-2.34 -9.782 -1.844 -9.805 -1.365 -9.811C-1.365 -9.811 -1.36 -9.811 -1.36 -9.811ZM-1.929 -6.615C-2.115 -6.607 -2.31 -6.595 -2.513 -6.579C-2.513 -6.579 -2.516 -6.579 -2.516 -6.579C-2.858 -6.554 -3.239 -6.517 -3.657 -6.468C-3.657 -6.468 -3.664 -6.468 -3.664 -6.468C-3.977 -6.437 -4.284 -6.393 -4.583 -6.333C-4.583 -6.333 -4.537 1.02 -4.537 1.02C-4.251 1.067 -3.965 1.103 -3.679 1.127C-3.291 1.152 -2.916 1.164 -2.553 1.164C-1.585 1.164 -0.6729 1.055 0.1831 0.8393C0.1831 0.8393 0.5034 0.7514 0.5034 0.7514C1.238 0.5371 1.884 0.2624 2.443 -0.06887C3.081 -0.4471 3.579 -0.8863 3.946 -1.382C4.258 -1.813 4.429 -2.263 4.467 -2.738C4.467 -2.738 4.475 -2.943 4.475 -2.943C4.475 -3.523 4.336 -4.028 4.066 -4.466C4.066 -4.466 4.064 -4.469 4.064 -4.469C3.797 -4.915 3.415 -5.301 2.909 -5.624C1.853 -6.283 0.439 -6.627 -1.36 -6.627C-1.36 -6.627 -1.929 -6.615 -1.929 -6.615Z"></path>
  <path transform="translate(6.42073 41.2934)" fill="#4a9830" d="M-5.714 -23.71L5.714 -23.71L5.714 9.714C5.714 9.714 -3.429 9.714 -3.429 9.714C-4.691 9.714 -5.714 8.691 -5.714 7.429C-5.714 7.429 -5.714 -23.71 -5.714 -23.71Z"></path>
  <path transform="translate(8.61048 51.0854)" d="M-7.904 -3.922C-7.904 -3.922 2.674 -3.922 2.674 -3.922C3.286 -3.922 3.591 -3.922 3.849 -3.893C5.965 -3.653 7.634 -1.983 7.875 0.133C7.904 0.3902 7.904 0.696 7.904 1.307C7.904 1.613 7.904 1.766 7.889 1.895C7.769 2.953 6.934 3.788 5.876 3.908C5.748 3.922 5.595 3.922 5.289 3.922C5.289 3.922 -4.247 3.922 -4.247 3.922C-5.527 3.922 -6.167 3.922 -6.656 3.673C-7.086 3.454 -7.436 3.104 -7.655 2.674C-7.904 2.185 -7.904 1.545 -7.904 0.2652C-7.904 0.2652 -7.904 -3.922 -7.904 -3.922Z"></path>
  <path transform="translate(25.3586 41.8263)" fill="#4a9830" d="M-17.74 -9.295L-9.657 -17.38L13.74 6.019C13.74 6.019 7.273 12.48 7.273 12.48C6.38 13.38 4.933 13.38 4.041 12.48C4.041 12.48 -17.74 -9.295 -17.74 -9.295Z"></path>
  <path transform="translate(33.5134 47.9629)" d="M-7.972 2.489C-7.972 2.489 -0.4921 -4.991 -0.4921 -4.991C-0.0597 -5.423 0.1565 -5.639 0.359 -5.8C2.025 -7.127 4.387 -7.127 6.053 -5.8C6.255 -5.639 6.472 -5.423 6.904 -4.991C7.12 -4.774 7.228 -4.666 7.309 -4.565C7.972 -3.732 7.972 -2.551 7.309 -1.718C7.228 -1.617 7.12 -1.509 6.904 -1.293C6.904 -1.293 0.161 5.45 0.161 5.45C-0.7442 6.356 -1.197 6.808 -1.719 6.978C-2.178 7.127 -2.672 7.127 -3.131 6.978C-3.653 6.808 -4.106 6.356 -5.011 5.45C-5.011 5.45 -7.972 2.489 -7.972 2.489Z"></path>
  <path transform="translate(18.9922 22.8571)" fill="#4a9830" d="M-18.29 -7.543C-18.29 -10.1 -18.29 -11.38 -17.79 -12.36C-17.35 -13.22 -16.65 -13.92 -15.79 -14.36C-14.81 -14.86 -13.53 -14.86 -10.97 -14.86C-10.97 -14.86 3.429 -14.86 3.429 -14.86C11.63 -14.86 18.29 -8.205 18.29 -5e-05C18.29 8.205 11.63 14.86 3.429 14.86C3.429 14.86 -18.29 14.86 -18.29 14.86C-18.29 14.86 -18.29 -7.543 -18.29 -7.543Z"></path>
  <path transform="matrix(0.866025 0.5 -0.5 0.866025 18.22 25.3231)" fill-opacity="0.521569" d="M0 -8.18C4.518 -8.18 8.18 -4.518 8.18 0C8.18 4.518 4.518 8.18 0 8.18C-4.518 8.18 -8.18 4.518 -8.18 0C-8.18 -4.518 -4.518 -8.18 0 -8.18Z"></path>
  <g clip-path="url(#clip0)">
    <path transform="matrix(-0.5 0.866025 -0.866025 -0.5 25.0541 13.4866)" fill="#ffffff" d="M-9.028 -4.526C-9.028 -5.158 -8.516 -5.669 -7.885 -5.669L7.885 -5.669C8.516 -5.669 9.028 -5.158 9.028 -4.526L9.028 4.526C9.028 5.158 8.516 5.669 7.885 5.669L-7.885 5.669C-8.516 5.669 -9.028 5.158 -9.028 4.526L-9.028 -4.526Z"></path>
  </g>
  <g clip-path="url(#clip1)">
    <path fill="none" stroke="#f15454" stroke-width="10" stroke-linejoin="bevel" stroke-linecap="round" d="M13.69 32.45C10.31 32.45 8.408 36.55 5.02 36.55C1.633 36.55 -0.2657 32.45 -3.653 32.45C-7.04 32.45 -8.939 36.55 -12.32 36.55"></path>
  </g>
  <path transform="matrix(0.965926 -0.258819 0.258819 0.965926 26.7953 15.3948)" d="M0 -1.714C0.9468 -1.714 1.714 -0.9468 1.714 0C1.714 0.9468 0.9468 1.714 0 1.714C-0.9468 1.714 -1.714 0.9468 -1.714 0C-1.714 -0.9468 -0.9468 -1.714 0 -1.714Z"></path>
  <path transform="matrix(0.965926 -0.258819 0.258819 0.965926 31.211 14.2117)" d="M0 -1.714C0.9468 -1.714 1.714 -0.9468 1.714 0C1.714 0.9468 0.9468 1.714 0 1.714C-0.9468 1.714 -1.714 0.9468 -1.714 0C-1.714 -0.9468 -0.9468 -1.714 0 -1.714Z"></path>
</svg>