<svg width="142" height="56" viewBox="0 0 142 56" fill="none" xmlns="http://www.w3.org/2000/svg">
<g id="logo">
<g id="Group 10">
<g id="Group 3">
<path id="Rectangle 8" d="M1.49316 24.1318H11.4932V48.1318H3.49316C2.38859 48.1318 1.49316 47.2364 1.49316 46.1318V24.1318Z" fill="#4A9830"/>
<path id="Rectangle 9" d="M1.49316 41.2676H10.7491C11.2841 41.2676 11.5517 41.2676 11.7767 41.2931C13.6283 41.5035 15.0893 42.9645 15.2996 44.8161C15.3252 45.0411 15.3252 45.3086 15.3252 45.8437C15.3252 46.1112 15.3252 46.2449 15.3124 46.3574C15.2072 47.2832 14.4767 48.0137 13.5509 48.1189C13.4384 48.1317 13.3047 48.1317 13.0372 48.1317H4.69316C3.57306 48.1317 3.01301 48.1317 2.58518 47.9137C2.20886 47.722 1.9029 47.416 1.71115 47.0397C1.49316 46.6118 1.49316 46.0518 1.49316 44.9317V41.2676Z" fill="black"/>
</g>
<g id="Group 9">
<path id="Rectangle 8_2" d="M11.0423 31.9648L18.1133 24.8938L35.0839 41.8643L29.427 47.5212C28.646 48.3022 27.3797 48.3022 26.5986 47.5212L11.0423 31.9648Z" fill="#4A9830"/>
<path id="Rectangle 9_2" d="M23.223 44.1455L29.7679 37.6006C30.1462 37.2222 30.3354 37.0331 30.5126 36.892C31.9706 35.7315 34.0368 35.7315 35.4948 36.892C35.672 37.0331 35.8612 37.2222 36.2395 37.6006C36.4286 37.7897 36.5232 37.8843 36.5937 37.9729C37.174 38.7019 37.174 39.735 36.5937 40.464C36.5232 40.5526 36.4286 40.6472 36.2395 40.8363L30.3394 46.7364C29.5473 47.5285 29.1513 47.9245 28.6947 48.0729C28.293 48.2034 27.8603 48.2034 27.4586 48.0729C27.0019 47.9245 26.6059 47.5285 25.8139 46.7364L23.223 44.1455Z" fill="black"/>
</g>
<path id="Rectangle 11" d="M1.49316 13.4C1.49316 11.1598 1.49316 10.0397 1.92914 9.18404C2.31263 8.43139 2.92455 7.81947 3.6772 7.43597C4.53285 7 5.65295 7 7.89316 7H20.4932C27.6729 7 33.4932 12.8203 33.4932 20C33.4932 27.1797 27.6729 33 20.4932 33H1.49316V13.4Z" fill="#4A9830"/>
<g id="Group 13">
<circle id="Ellipse 7" cx="24.3209" cy="13.4703" r="1.5" transform="rotate(-15 24.3209 13.4703)" fill="black"/>
<circle id="Ellipse 7_2" cx="28.1846" cy="12.4352" r="1.5" transform="rotate(-15 28.1846 12.4352)" fill="black"/>
</g>
<g id="Group 12">
<circle id="Ellipse 9" cx="16.8175" cy="22.1577" r="7.15789" transform="rotate(30 16.8175 22.1577)" fill="black" fill-opacity="0.52"/>
<g id="Group 11">
<mask id="mask0_0_1" style="mask-type:alpha" maskUnits="userSpaceOnUse" x="9" y="14" width="15" height="16">
<circle id="Ellipse 10" cx="16.8176" cy="22.1577" r="7.15789" transform="rotate(30 16.8176 22.1577)" fill="white"/>
</mask>
<g mask="url(#mask0_0_1)">
<rect id="Rectangle 10" x="18.9764" y="28.3403" width="11.7694" height="9.92126" rx="4.96063" transform="rotate(120 18.9764 28.3403)" fill="#F15454"/>
<rect id="Rectangle 11_2" x="31.043" y="7.43994" width="15.7987" height="9.92126" rx="1" transform="rotate(120 31.043 7.43994)" fill="white"/>
</g>
</g>
</g>
</g>
<path id="Union" d="M107.904 35.0898C107.52 36.2208 107.168 37.2542 106.849 38.1895C106.537 39.1247 106.254 39.9696 106 40.7236C105.87 41.1078 105.725 41.5322 105.566 41.9961C105.414 42.4529 105.265 42.8885 105.12 43.3018C104.982 43.7076 104.87 44.0338 104.783 44.2803C104.601 44.7951 104.442 45.2561 104.304 45.6621C104.167 46.0607 104.046 46.3974 103.945 46.6729C103.872 46.8831 103.793 47.1014 103.706 47.3262C103.626 47.558 103.539 47.7976 103.445 48.0439C103.249 48.5224 103.01 49.0011 102.727 49.4795C102.452 49.9579 102.129 50.4217 101.759 50.8711C101.397 51.2989 100.961 51.6976 100.454 52.0674C99.9534 52.4153 99.3845 52.702 98.7466 52.9268C98.1086 53.1515 97.3908 53.2821 96.5933 53.3184L96.1685 51.1973C96.6178 51.248 97.0423 51.2375 97.4409 51.165C98.2022 50.9983 98.8806 50.6503 99.4751 50.1211C99.7433 49.8819 100.005 49.6136 100.258 49.3164C100.49 49.0337 100.697 48.7435 100.878 48.4463C101.06 48.1563 101.219 47.8837 101.357 47.6299L96.7671 35.4492L99.2573 35.1123L102.466 44.6934C102.64 44.1569 102.844 43.5257 103.076 42.8008C103.315 42.0687 103.568 41.2822 103.836 40.4414C104.097 39.6005 104.369 38.723 104.652 37.8096C104.935 36.8887 105.211 35.9747 105.479 35.0684L107.904 35.0898ZM75.689 34.5791C76.1893 34.5791 76.6792 34.6474 77.1577 34.7852C78.1365 35.0679 78.9988 35.5798 79.7456 36.3193C80.1154 36.6746 80.4309 37.0769 80.6919 37.5264C80.9529 37.9686 81.1528 38.4507 81.2905 38.9727C81.4355 39.4875 81.4968 40.0282 81.4751 40.5938C81.4533 41.2027 81.3596 41.79 81.1929 42.3555C80.8593 43.4503 80.3221 44.3713 79.5825 45.1182C79.2274 45.4877 78.8432 45.7991 78.4302 46.0527C77.5891 46.5748 76.7259 46.8359 75.8413 46.8359C75.3991 46.8287 74.9494 46.7639 74.4927 46.6406C74.094 46.5391 73.6556 46.3795 73.1772 46.1621C72.6987 45.9518 72.2272 45.6468 71.7632 45.248L71.6978 52.6221L69.6743 52.666L69.4897 34.7852L71.8823 34.6875L71.8608 36.2754C72.2741 35.8694 72.7053 35.5573 73.1548 35.3398C73.6043 35.1151 74.018 34.9451 74.395 34.8291C74.8589 34.6914 75.2903 34.6081 75.689 34.5791ZM89.6646 29.6416C90.3316 29.6706 91.0169 29.7758 91.7202 29.957C92.3438 30.1165 92.9897 30.3513 93.6567 30.6631C94.331 30.9748 94.9436 31.3956 95.4946 31.9248L94.2759 33.8506C93.8481 33.3648 93.3556 32.9765 92.7974 32.6865C92.2391 32.3893 91.7132 32.1719 91.2202 32.0342C90.6692 31.8819 90.1214 31.7942 89.5776 31.7725C88.9179 31.7725 88.3307 31.8707 87.8159 32.0664C87.3012 32.2622 86.87 32.5199 86.522 32.8389C86.1667 33.1506 85.8941 33.502 85.7056 33.8936C85.5243 34.2851 85.4341 34.6698 85.4341 35.0469C85.4341 35.4165 85.5429 35.7752 85.7603 36.123C85.985 36.4711 86.2935 36.7866 86.6851 37.0693C87.5116 37.6639 88.5413 38.0452 89.7739 38.2119C90.0421 38.2409 90.307 38.2803 90.5679 38.3311C90.8288 38.3746 91.0936 38.4289 91.3618 38.4941C91.8838 38.6246 92.3843 38.7911 92.8628 38.9941C93.3485 39.1971 93.7902 39.4409 94.189 39.7236C94.595 40.0209 94.9324 40.3504 95.2007 40.7129C95.4762 41.0899 95.6761 41.5141 95.7993 41.9854C95.9298 42.4494 95.9552 42.9647 95.8755 43.5303C95.803 44.0377 95.6609 44.4874 95.4507 44.8789C95.2332 45.2775 94.9649 45.6222 94.646 45.9121C94.3271 46.202 93.9719 46.4484 93.5806 46.6514C93.16 46.8544 92.7464 47.0139 92.3403 47.1299C91.9053 47.2531 91.4662 47.3399 91.0239 47.3906C90.5818 47.4486 90.1574 47.4775 89.7515 47.4775C89.1934 47.4775 88.6427 47.4161 88.0991 47.293C87.5553 47.177 87.0216 47.014 86.4995 46.8037C85.9704 46.5862 85.4487 46.3284 84.9341 46.0312C84.4266 45.734 83.9226 45.4079 83.4224 45.0527L85.0103 43.1816C85.5758 43.6819 86.134 44.0772 86.6851 44.3672C87.2433 44.6499 87.7438 44.8638 88.186 45.0088C88.7079 45.19 89.2006 45.3067 89.6646 45.3574C90.1866 45.3864 90.673 45.3461 91.1226 45.2373C91.5792 45.1213 91.9746 44.9618 92.3081 44.7588C93.004 44.331 93.3914 43.7832 93.4712 43.1162C93.4929 42.8481 93.4465 42.6016 93.3306 42.377C93.1058 41.9419 92.6702 41.5756 92.0249 41.2783C91.8727 41.2058 91.7131 41.141 91.5464 41.083C91.3869 41.0177 91.2239 40.9555 91.0571 40.8975C90.7091 40.7887 90.3498 40.695 89.98 40.6152C89.6175 40.5283 89.266 40.4555 88.9253 40.3975C88.5121 40.3177 88.0773 40.2195 87.6206 40.1035C87.164 39.9803 86.7141 39.8251 86.272 39.6367C85.8297 39.4409 85.4125 39.1973 85.021 38.9072C84.6222 38.61 84.2848 38.2586 84.0093 37.8525C83.7193 37.4465 83.4985 36.9715 83.3462 36.4277C83.2012 35.8841 83.1539 35.2607 83.2046 34.5576C83.2481 33.9631 83.3717 33.4372 83.5747 32.9805C83.959 32.0597 84.5785 31.3235 85.4341 30.7725C85.84 30.5115 86.2749 30.2941 86.7388 30.1201C87.2028 29.9461 87.6822 29.8225 88.1753 29.75C88.6753 29.6703 89.1717 29.6344 89.6646 29.6416ZM129.45 34.5576C130.697 34.5576 131.825 34.8512 132.833 35.4385C133.826 36.0258 134.583 36.8453 135.105 37.8965L135.127 37.9395L133.322 39.0381L133.3 38.9727C132.923 38.2331 132.393 37.653 131.711 37.2324C131.03 36.8048 130.276 36.5908 129.45 36.5908C128.855 36.5908 128.297 36.703 127.775 36.9277C127.26 37.1525 126.811 37.4611 126.426 37.8525C126.035 38.2441 125.726 38.7051 125.501 39.2344C125.277 39.7563 125.165 40.3148 125.165 40.9092C125.165 41.4964 125.277 42.0513 125.501 42.5732C125.726 43.0952 126.035 43.5519 126.426 43.9434C126.811 44.3348 127.26 44.6434 127.775 44.8682C128.297 45.0929 128.855 45.2051 129.45 45.2051C130.204 45.2051 130.918 45.0087 131.592 44.6172C132.266 44.2257 132.792 43.7077 133.169 43.0625L133.212 42.9971L135.105 44.0742L135.083 44.1387C134.801 44.6099 134.456 45.0341 134.05 45.4111C133.652 45.7882 133.205 46.1151 132.712 46.3906C131.705 46.9489 130.617 47.2275 129.45 47.2275C128.63 47.2275 127.84 47.0681 127.079 46.749C126.317 46.43 125.635 45.9883 125.034 45.4229C124.439 44.8573 123.961 44.1895 123.598 43.4209C123.236 42.6525 123.054 41.8153 123.054 40.9092C123.054 40.3654 123.13 39.8281 123.283 39.2988C123.587 38.2258 124.128 37.2942 124.904 36.5039C125.092 36.301 125.295 36.1159 125.512 35.9492C125.73 35.7752 125.955 35.6157 126.187 35.4707C126.658 35.188 127.169 34.9671 127.72 34.8076C128.271 34.6409 128.848 34.5576 129.45 34.5576ZM52.1099 44.7803L61.7349 44.0303L61.8442 46.3467L49.9888 47.1621L49.9233 30.6201L52.1753 30.5L52.1099 44.7803ZM116.703 34.7637C117.261 34.7274 117.744 34.7748 118.15 34.9053C118.556 35.0358 118.904 35.2173 119.194 35.4492C119.484 35.6739 119.723 35.9457 119.912 36.2646C120.107 36.5908 120.255 36.9171 120.357 37.2432C120.466 37.5766 120.542 37.9142 120.585 38.2549C120.636 38.5884 120.669 38.8934 120.683 39.1689C120.727 40.4159 120.738 41.6702 120.716 42.9316C120.695 44.1933 120.669 45.5025 120.64 46.8584L118.411 46.7822C118.469 45.615 118.519 44.4475 118.563 43.2803C118.614 42.1129 118.61 40.9342 118.552 39.7451C118.552 39.4913 118.522 39.2013 118.464 38.875C118.406 38.5417 118.302 38.2118 118.15 37.8857C118.041 37.661 117.899 37.4611 117.725 37.2871C117.551 37.1204 117.337 36.9932 117.083 36.9062C116.837 36.8193 116.547 36.8008 116.213 36.8516C115.641 36.9386 115.06 37.3558 114.473 38.1025C113.893 38.8276 113.255 39.9265 112.559 41.3984L112.635 44.1826C112.643 44.5304 112.649 44.8348 112.657 45.0957C112.664 45.3567 112.672 45.5785 112.679 45.7598C112.694 46.1797 112.704 46.4623 112.711 46.6074L110.373 46.9014L110.156 40.7998C110.141 40.3867 110.126 39.9447 110.112 39.4736C110.097 38.9953 110.083 38.5454 110.069 38.125C110.054 37.6973 110.043 37.3598 110.036 37.1133C110.007 36.0911 109.985 35.3224 109.97 34.8076L112.451 34.7637L112.494 37.8965C112.733 37.4832 113.006 37.095 113.31 36.7324C113.614 36.3628 113.944 36.0366 114.299 35.7539C114.655 35.4712 115.031 35.2424 115.43 35.0684C115.836 34.8944 116.26 34.7927 116.703 34.7637ZM138.542 44.0742C138.927 44.0743 139.253 44.2119 139.521 44.4873C139.789 44.7627 139.923 45.0924 139.923 45.4766C139.923 45.8535 139.786 46.1761 139.51 46.4443C139.242 46.7198 138.919 46.8583 138.542 46.8584C138.158 46.8584 137.828 46.7199 137.552 46.4443C137.277 46.1761 137.139 45.8535 137.139 45.4766C137.139 45.0852 137.273 44.7555 137.542 44.4873C137.817 44.2118 138.151 44.0742 138.542 44.0742ZM66.2271 40.6475C66.1908 42.0831 66.1689 43.2109 66.1616 44.0303C66.1399 45.0309 66.1294 45.8178 66.1294 46.3906H63.8999C63.9072 45.9992 63.9141 45.5713 63.9214 45.1074C63.9359 44.6361 63.9464 44.1313 63.9536 43.5947C63.9681 42.6596 63.99 41.5251 64.019 40.1914L64.0845 35.5146L66.3354 35.4277L66.2271 40.6475ZM75.4604 36.7871C74.5833 36.8017 73.8145 37.0838 73.1548 37.6348C72.5023 38.1785 72.0607 38.8386 71.8286 39.6143L71.8062 41.6807C71.9149 42.1592 72.0859 42.5799 72.3179 42.9424C72.5571 43.3049 72.8323 43.6064 73.144 43.8457C73.782 44.3387 74.4964 44.5919 75.2866 44.6064C75.7941 44.6209 76.2692 44.5307 76.7114 44.335C77.1609 44.1392 77.5527 43.8675 77.8862 43.5195C78.2198 43.1715 78.4844 42.7648 78.6802 42.3008C78.8832 41.8368 78.9988 41.3363 79.0278 40.7998C79.0858 39.6979 78.7781 38.7591 78.104 37.9834C77.7777 37.6136 77.3894 37.3201 76.9399 37.1025C76.4904 36.885 75.997 36.7799 75.4604 36.7871ZM65.2808 30.0332C65.7085 30.0332 66.0749 30.1883 66.3794 30.5C66.6911 30.8045 66.8471 31.171 66.8472 31.5986C66.8472 32.0192 66.6912 32.382 66.3794 32.6865C66.0749 32.9838 65.7086 33.1328 65.2808 33.1328C64.8602 33.1328 64.4974 32.9838 64.1929 32.6865C63.8957 32.382 63.7476 32.0191 63.7476 31.5986C63.7476 31.171 63.8957 30.8045 64.1929 30.5C64.4974 30.1883 64.8603 30.0332 65.2808 30.0332ZM88.48 13.3164C89.2338 13.3165 89.944 13.4656 90.6108 13.7627C91.2779 14.0527 91.8695 14.4549 92.3843 14.9697C92.899 15.4917 93.3232 16.1044 93.6567 16.8076C93.9903 17.5109 94.2006 18.2725 94.2876 19.0918L84.8687 20.4951C84.9194 21.0098 85.0466 21.4735 85.2495 21.8867C85.4598 22.2928 85.7209 22.6371 86.0327 22.9199C86.678 23.5 87.4939 23.79 88.48 23.79C89.2845 23.7899 90.0236 23.5506 90.6978 23.0723C91.372 22.5865 91.8111 21.9125 92.0142 21.0498L94.1138 21.4736C93.9108 22.1334 93.6242 22.732 93.2544 23.2686C92.8846 23.8051 92.4525 24.2651 91.9595 24.6494C91.4665 25.0336 90.923 25.3308 90.3286 25.541C89.7415 25.7512 89.1251 25.8564 88.48 25.8564C87.5229 25.8564 86.6737 25.7119 85.9341 25.4219C85.1946 25.1319 84.5714 24.7216 84.064 24.1924C83.0272 23.1121 82.5084 21.6406 82.5083 19.7773C82.5083 18.8711 82.6609 18.0262 82.9653 17.2432C83.2771 16.4529 83.7013 15.7675 84.2378 15.1875C84.7743 14.6075 85.4053 14.1509 86.1304 13.8174C86.8554 13.4839 87.6389 13.3164 88.48 13.3164ZM55.2534 8.77051C55.7245 8.77052 56.2463 8.80295 56.8188 8.86816C57.3917 8.93342 57.9648 9.05003 58.5376 9.2168C59.1175 9.38352 59.6795 9.61494 60.2231 9.91211C60.7597 10.2094 61.2347 10.5872 61.6479 11.0439C62.054 11.508 62.373 12.0662 62.605 12.7188C62.837 13.3713 62.9387 14.1364 62.9097 15.0137C62.8879 15.5718 62.7757 16.0829 62.5728 16.5469C62.3697 17.0109 62.1016 17.4281 61.7681 17.7979C61.4345 18.1749 61.0463 18.5123 60.604 18.8096C60.1618 19.0995 59.6901 19.3493 59.1899 19.5596L62.355 24.541L60.104 25.2803L57.0581 20.2012C56.7103 20.2664 56.348 20.3208 55.9712 20.3643C55.6014 20.4078 55.1912 20.4297 54.7417 20.4297C54.3792 20.4297 53.9804 20.4147 53.5454 20.3857C53.1177 20.3495 52.668 20.2882 52.1968 20.2012L52.2407 24.8125L49.9458 24.8994V9.50977C50.5692 9.32133 51.1926 9.18018 51.8159 9.08594C52.4395 8.99168 53.0091 8.91892 53.5239 8.86816C54.1257 8.81017 54.7024 8.77776 55.2534 8.77051ZM81.2144 13.7627L76.9399 25.2148L73.8726 25.1719L70.0552 14.1865L72.2632 13.8496L75.5151 23.1924L78.9741 13.458L81.2144 13.7627ZM67.728 19.3418C67.6918 20.7774 67.6698 21.9053 67.6626 22.7246C67.6408 23.7252 67.6304 24.5122 67.6304 25.085H65.4009C65.4081 24.6934 65.4151 24.2648 65.4224 23.8008C65.4369 23.3296 65.4473 22.8254 65.4546 22.2891C65.4691 21.3538 65.491 20.2187 65.52 18.8848L65.5854 14.209L67.8364 14.1211L67.728 19.3418ZM88.48 15.1875C88.1755 15.1875 87.8415 15.2418 87.479 15.3506C87.1165 15.4521 86.7651 15.63 86.4243 15.8838C86.0835 16.1376 85.775 16.4785 85.4995 16.9062C85.2314 17.3266 85.0428 17.8519 84.9341 18.4824L91.481 17.6885L91.4165 17.4824C91.141 16.7647 90.7597 16.2029 90.2739 15.7969C89.7955 15.3909 89.1976 15.1876 88.48 15.1875ZM54.7417 10.9678C54.5751 10.975 54.4013 10.9855 54.2202 11C53.9157 11.0217 53.5782 11.0542 53.2085 11.0977C52.8387 11.1339 52.4794 11.1927 52.1313 11.2725L52.1753 18.2002C52.516 18.2654 52.857 18.3128 53.1978 18.3418C53.5457 18.3635 53.8833 18.374 54.2095 18.374C55.0794 18.374 55.9025 18.2758 56.6782 18.0801C57.4611 17.8771 58.1467 17.6019 58.7339 17.2539C59.3211 16.9059 59.7883 16.4956 60.1362 16.0244C60.4842 15.5459 60.6587 15.0314 60.6587 14.4805C60.6587 13.9222 60.5246 13.4253 60.2563 12.9902C59.9953 12.5552 59.6255 12.1854 59.147 11.8809C58.1609 11.2646 56.8629 10.9571 55.2534 10.957C55.0867 10.957 54.9157 10.9605 54.7417 10.9678ZM66.7817 8.72656C67.2095 8.72656 67.5759 8.88261 67.8804 9.19434C68.1921 9.49883 68.3481 9.86525 68.3481 10.293C68.3481 10.7135 68.1921 11.0763 67.8804 11.3809C67.5758 11.6781 67.2095 11.8262 66.7817 11.8262C66.3612 11.8262 65.9984 11.6781 65.6938 11.3809C65.3966 11.0763 65.2485 10.7135 65.2485 10.293C65.2486 9.86525 65.3966 9.49883 65.6938 9.19434C65.9984 8.88257 66.3612 8.72656 66.7817 8.72656Z" fill="black"/>
</g>
</svg>
